<mxfile host="app.diagrams.net" modified="2024-05-17T04:43:33.255Z" agent="Mozilla/5.0 (X11; Ubuntu; Linux x86_64; rv:125.0) Gecko/20100101 Firefox/125.0" etag="uwl9YJ1uF7CHkIzmcAy4" version="24.4.3" type="device">
  <diagram name="Page-1" id="74e2e168-ea6b-b213-b513-2b3c1d86103e">
    <mxGraphModel dx="669" dy="845" grid="1" gridSize="10" guides="1" tooltips="1" connect="1" arrows="1" fold="1" page="1" pageScale="1" pageWidth="1100" pageHeight="850" background="none" math="0" shadow="0">
      <root>
        <mxCell id="0" />
        <mxCell id="1" parent="0" />
        <mxCell id="S1xXZh_2Qz6jOvYGOtP_-4" value="" style="edgeStyle=none;curved=1;rounded=0;orthogonalLoop=1;jettySize=auto;html=1;fontSize=12;startSize=8;endSize=8;" edge="1" parent="1" source="S1xXZh_2Qz6jOvYGOtP_-1" target="S1xXZh_2Qz6jOvYGOtP_-2">
          <mxGeometry relative="1" as="geometry" />
        </mxCell>
        <mxCell id="S1xXZh_2Qz6jOvYGOtP_-1" value="Application start" style="rounded=0;whiteSpace=wrap;html=1;" vertex="1" parent="1">
          <mxGeometry x="120" y="190" width="120" height="60" as="geometry" />
        </mxCell>
        <mxCell id="S1xXZh_2Qz6jOvYGOtP_-6" value="" style="edgeStyle=none;curved=1;rounded=0;orthogonalLoop=1;jettySize=auto;html=1;fontSize=12;startSize=8;endSize=8;" edge="1" parent="1" source="S1xXZh_2Qz6jOvYGOtP_-2" target="S1xXZh_2Qz6jOvYGOtP_-5">
          <mxGeometry relative="1" as="geometry" />
        </mxCell>
        <mxCell id="S1xXZh_2Qz6jOvYGOtP_-9" value="" style="edgeStyle=none;curved=1;rounded=0;orthogonalLoop=1;jettySize=auto;html=1;fontSize=12;startSize=8;endSize=8;" edge="1" parent="1" source="S1xXZh_2Qz6jOvYGOtP_-2" target="S1xXZh_2Qz6jOvYGOtP_-8">
          <mxGeometry relative="1" as="geometry" />
        </mxCell>
        <mxCell id="S1xXZh_2Qz6jOvYGOtP_-2" value="application started with appropriate values?" style="rhombus;whiteSpace=wrap;html=1;" vertex="1" parent="1">
          <mxGeometry x="70" y="305" width="220" height="120" as="geometry" />
        </mxCell>
        <mxCell id="S1xXZh_2Qz6jOvYGOtP_-5" value="&lt;div&gt;Print error message.&lt;/div&gt;&lt;div&gt;Terminate program.&lt;br&gt;&lt;/div&gt;" style="rounded=0;whiteSpace=wrap;html=1;" vertex="1" parent="1">
          <mxGeometry x="120" y="480" width="120" height="60" as="geometry" />
        </mxCell>
        <mxCell id="S1xXZh_2Qz6jOvYGOtP_-7" value="No" style="text;html=1;align=center;verticalAlign=middle;resizable=0;points=[];autosize=1;strokeColor=none;fillColor=none;fontSize=16;" vertex="1" parent="1">
          <mxGeometry x="134" y="431" width="40" height="30" as="geometry" />
        </mxCell>
        <mxCell id="S1xXZh_2Qz6jOvYGOtP_-47" value="" style="edgeStyle=none;curved=1;rounded=0;orthogonalLoop=1;jettySize=auto;html=1;fontSize=12;startSize=8;endSize=8;" edge="1" parent="1" source="S1xXZh_2Qz6jOvYGOtP_-8" target="S1xXZh_2Qz6jOvYGOtP_-46">
          <mxGeometry relative="1" as="geometry" />
        </mxCell>
        <mxCell id="S1xXZh_2Qz6jOvYGOtP_-8" value="send ioctl" style="rounded=0;whiteSpace=wrap;html=1;" vertex="1" parent="1">
          <mxGeometry x="340" y="335" width="120" height="60" as="geometry" />
        </mxCell>
        <mxCell id="S1xXZh_2Qz6jOvYGOtP_-10" value="" style="endArrow=none;dashed=1;html=1;dashPattern=1 3;strokeWidth=2;rounded=0;fontSize=12;startSize=8;endSize=8;curved=1;" edge="1" parent="1">
          <mxGeometry width="50" height="50" relative="1" as="geometry">
            <mxPoint x="50" y="600" as="sourcePoint" />
            <mxPoint x="576" y="600" as="targetPoint" />
          </mxGeometry>
        </mxCell>
        <mxCell id="S1xXZh_2Qz6jOvYGOtP_-17" value="" style="edgeStyle=none;curved=1;rounded=0;orthogonalLoop=1;jettySize=auto;html=1;fontSize=12;startSize=8;endSize=8;" edge="1" parent="1" source="S1xXZh_2Qz6jOvYGOtP_-11" target="S1xXZh_2Qz6jOvYGOtP_-16">
          <mxGeometry relative="1" as="geometry" />
        </mxCell>
        <mxCell id="S1xXZh_2Qz6jOvYGOtP_-11" value="ioctl called from application" style="rounded=0;whiteSpace=wrap;html=1;" vertex="1" parent="1">
          <mxGeometry x="70" y="670" width="120" height="50" as="geometry" />
        </mxCell>
        <mxCell id="S1xXZh_2Qz6jOvYGOtP_-14" style="edgeStyle=none;curved=1;rounded=0;orthogonalLoop=1;jettySize=auto;html=1;entryX=0.5;entryY=0;entryDx=0;entryDy=0;fontSize=12;startSize=8;endSize=8;" edge="1" parent="1">
          <mxGeometry relative="1" as="geometry">
            <mxPoint x="113" y="760" as="sourcePoint" />
            <mxPoint x="113" y="760" as="targetPoint" />
          </mxGeometry>
        </mxCell>
        <mxCell id="S1xXZh_2Qz6jOvYGOtP_-19" value="" style="edgeStyle=none;curved=1;rounded=0;orthogonalLoop=1;jettySize=auto;html=1;fontSize=12;startSize=8;endSize=8;" edge="1" parent="1" source="S1xXZh_2Qz6jOvYGOtP_-16" target="S1xXZh_2Qz6jOvYGOtP_-18">
          <mxGeometry relative="1" as="geometry" />
        </mxCell>
        <mxCell id="S1xXZh_2Qz6jOvYGOtP_-21" value="" style="edgeStyle=none;curved=1;rounded=0;orthogonalLoop=1;jettySize=auto;html=1;fontSize=12;startSize=8;endSize=8;" edge="1" parent="1" source="S1xXZh_2Qz6jOvYGOtP_-16" target="S1xXZh_2Qz6jOvYGOtP_-20">
          <mxGeometry relative="1" as="geometry" />
        </mxCell>
        <mxCell id="S1xXZh_2Qz6jOvYGOtP_-16" value="ioctl set?" style="rhombus;whiteSpace=wrap;html=1;" vertex="1" parent="1">
          <mxGeometry x="78" y="770" width="104" height="80" as="geometry" />
        </mxCell>
        <mxCell id="S1xXZh_2Qz6jOvYGOtP_-18" value="initialize data structure for&amp;nbsp; timer" style="rounded=0;whiteSpace=wrap;html=1;" vertex="1" parent="1">
          <mxGeometry x="230" y="785" width="120" height="50" as="geometry" />
        </mxCell>
        <mxCell id="S1xXZh_2Qz6jOvYGOtP_-24" value="" style="edgeStyle=none;curved=1;rounded=0;orthogonalLoop=1;jettySize=auto;html=1;fontSize=12;startSize=8;endSize=8;" edge="1" parent="1" source="S1xXZh_2Qz6jOvYGOtP_-20" target="S1xXZh_2Qz6jOvYGOtP_-23">
          <mxGeometry relative="1" as="geometry" />
        </mxCell>
        <mxCell id="S1xXZh_2Qz6jOvYGOtP_-26" value="" style="edgeStyle=none;curved=1;rounded=0;orthogonalLoop=1;jettySize=auto;html=1;fontSize=12;startSize=8;endSize=8;" edge="1" parent="1" source="S1xXZh_2Qz6jOvYGOtP_-20" target="S1xXZh_2Qz6jOvYGOtP_-25">
          <mxGeometry relative="1" as="geometry" />
        </mxCell>
        <mxCell id="S1xXZh_2Qz6jOvYGOtP_-20" value="read?" style="rhombus;whiteSpace=wrap;html=1;" vertex="1" parent="1">
          <mxGeometry x="78" y="900" width="104" height="80" as="geometry" />
        </mxCell>
        <mxCell id="S1xXZh_2Qz6jOvYGOtP_-28" value="" style="edgeStyle=none;curved=1;rounded=0;orthogonalLoop=1;jettySize=auto;html=1;fontSize=12;startSize=8;endSize=8;" edge="1" parent="1" source="S1xXZh_2Qz6jOvYGOtP_-23" target="S1xXZh_2Qz6jOvYGOtP_-27">
          <mxGeometry relative="1" as="geometry" />
        </mxCell>
        <mxCell id="S1xXZh_2Qz6jOvYGOtP_-23" value="RESET input given?" style="rhombus;whiteSpace=wrap;html=1;" vertex="1" parent="1">
          <mxGeometry x="240" y="900" width="104" height="80" as="geometry" />
        </mxCell>
        <mxCell id="S1xXZh_2Qz6jOvYGOtP_-37" value="" style="edgeStyle=none;curved=1;rounded=0;orthogonalLoop=1;jettySize=auto;html=1;fontSize=12;startSize=8;endSize=8;" edge="1" parent="1" source="S1xXZh_2Qz6jOvYGOtP_-25" target="S1xXZh_2Qz6jOvYGOtP_-36">
          <mxGeometry relative="1" as="geometry" />
        </mxCell>
        <mxCell id="S1xXZh_2Qz6jOvYGOtP_-41" value="" style="edgeStyle=none;curved=1;rounded=0;orthogonalLoop=1;jettySize=auto;html=1;fontSize=12;startSize=8;endSize=8;" edge="1" parent="1" source="S1xXZh_2Qz6jOvYGOtP_-25" target="S1xXZh_2Qz6jOvYGOtP_-39">
          <mxGeometry relative="1" as="geometry" />
        </mxCell>
        <mxCell id="S1xXZh_2Qz6jOvYGOtP_-25" value="ioctl start?" style="rhombus;whiteSpace=wrap;html=1;" vertex="1" parent="1">
          <mxGeometry x="78" y="1030" width="104" height="80" as="geometry" />
        </mxCell>
        <mxCell id="S1xXZh_2Qz6jOvYGOtP_-27" value="return flag" style="rounded=0;whiteSpace=wrap;html=1;" vertex="1" parent="1">
          <mxGeometry x="430" y="915" width="120" height="50" as="geometry" />
        </mxCell>
        <mxCell id="S1xXZh_2Qz6jOvYGOtP_-29" value="" style="endArrow=classic;html=1;rounded=0;fontSize=12;startSize=8;endSize=8;curved=1;exitX=0.5;exitY=1;exitDx=0;exitDy=0;" edge="1" parent="1" source="S1xXZh_2Qz6jOvYGOtP_-23">
          <mxGeometry width="50" height="50" relative="1" as="geometry">
            <mxPoint x="300" y="880" as="sourcePoint" />
            <mxPoint x="210" y="940" as="targetPoint" />
            <Array as="points">
              <mxPoint x="300" y="1020" />
              <mxPoint x="200" y="1020" />
            </Array>
          </mxGeometry>
        </mxCell>
        <mxCell id="S1xXZh_2Qz6jOvYGOtP_-31" value="No" style="text;html=1;align=center;verticalAlign=middle;resizable=0;points=[];autosize=1;strokeColor=none;fillColor=none;fontSize=16;" vertex="1" parent="1">
          <mxGeometry x="284" y="1001" width="40" height="30" as="geometry" />
        </mxCell>
        <mxCell id="S1xXZh_2Qz6jOvYGOtP_-32" value="Yes" style="text;html=1;align=center;verticalAlign=middle;resizable=0;points=[];autosize=1;strokeColor=none;fillColor=none;fontSize=16;" vertex="1" parent="1">
          <mxGeometry x="350" y="915" width="50" height="30" as="geometry" />
        </mxCell>
        <mxCell id="S1xXZh_2Qz6jOvYGOtP_-33" value="Yes" style="text;html=1;align=center;verticalAlign=middle;resizable=0;points=[];autosize=1;strokeColor=none;fillColor=none;fontSize=16;" vertex="1" parent="1">
          <mxGeometry x="174" y="780" width="50" height="30" as="geometry" />
        </mxCell>
        <mxCell id="S1xXZh_2Qz6jOvYGOtP_-34" value="No" style="text;html=1;align=center;verticalAlign=middle;resizable=0;points=[];autosize=1;strokeColor=none;fillColor=none;fontSize=16;" vertex="1" parent="1">
          <mxGeometry x="134" y="860" width="40" height="30" as="geometry" />
        </mxCell>
        <mxCell id="S1xXZh_2Qz6jOvYGOtP_-35" value="No" style="text;html=1;align=center;verticalAlign=middle;resizable=0;points=[];autosize=1;strokeColor=none;fillColor=none;fontSize=16;" vertex="1" parent="1">
          <mxGeometry x="142" y="990" width="40" height="30" as="geometry" />
        </mxCell>
        <mxCell id="S1xXZh_2Qz6jOvYGOtP_-36" value="End" style="rounded=0;whiteSpace=wrap;html=1;" vertex="1" parent="1">
          <mxGeometry x="70" y="1225" width="120" height="50" as="geometry" />
        </mxCell>
        <mxCell id="S1xXZh_2Qz6jOvYGOtP_-38" value="No" style="text;html=1;align=center;verticalAlign=middle;resizable=0;points=[];autosize=1;strokeColor=none;fillColor=none;fontSize=16;" vertex="1" parent="1">
          <mxGeometry x="142" y="1160" width="40" height="30" as="geometry" />
        </mxCell>
        <mxCell id="S1xXZh_2Qz6jOvYGOtP_-39" value="add_timer()" style="rounded=0;whiteSpace=wrap;html=1;" vertex="1" parent="1">
          <mxGeometry x="284" y="1045" width="120" height="50" as="geometry" />
        </mxCell>
        <mxCell id="S1xXZh_2Qz6jOvYGOtP_-43" value="Yes" style="text;html=1;align=center;verticalAlign=middle;resizable=0;points=[];autosize=1;strokeColor=none;fillColor=none;fontSize=16;" vertex="1" parent="1">
          <mxGeometry x="200" y="1080" width="50" height="30" as="geometry" />
        </mxCell>
        <mxCell id="S1xXZh_2Qz6jOvYGOtP_-44" value="" style="html=1;labelBackgroundColor=#ffffff;startArrow=none;startFill=0;startSize=6;endArrow=classic;endFill=1;endSize=6;jettySize=auto;orthogonalLoop=1;strokeWidth=1;dashed=1;fontSize=14;rounded=0;curved=1;exitX=0.5;exitY=1;exitDx=0;exitDy=0;" edge="1" parent="1" source="S1xXZh_2Qz6jOvYGOtP_-8">
          <mxGeometry width="60" height="60" relative="1" as="geometry">
            <mxPoint x="290" y="700" as="sourcePoint" />
            <mxPoint x="300" y="600" as="targetPoint" />
            <Array as="points">
              <mxPoint x="280" y="470" />
            </Array>
          </mxGeometry>
        </mxCell>
        <mxCell id="S1xXZh_2Qz6jOvYGOtP_-45" value="Yes" style="text;html=1;align=center;verticalAlign=middle;resizable=0;points=[];autosize=1;strokeColor=none;fillColor=none;fontSize=16;" vertex="1" parent="1">
          <mxGeometry x="284" y="330" width="50" height="30" as="geometry" />
        </mxCell>
        <mxCell id="S1xXZh_2Qz6jOvYGOtP_-46" value="Terminate" style="rounded=0;whiteSpace=wrap;html=1;" vertex="1" parent="1">
          <mxGeometry x="530" y="335" width="120" height="60" as="geometry" />
        </mxCell>
      </root>
    </mxGraphModel>
  </diagram>
</mxfile>
